<svg width="632" height="448" viewBox="0 0 632 448" fill="none" xmlns="http://www.w3.org/2000/svg">
<g clip-path="url(#clip0_2865_24)">
<rect width="632" height="448" fill="white"/>
<rect width="632" height="448" fill="#474B51"/>
<rect x="32" y="32" width="96" height="28" rx="14" fill="white"/>
<path d="M54.5237 51.0795C54.2784 51.0795 54.068 50.9917 53.8923 50.8161C53.7166 50.6404 53.6288 50.4299 53.6288 50.1847C53.6288 49.9394 53.7166 49.7289 53.8923 49.5533C54.068 49.3776 54.2784 49.2898 54.5237 49.2898C54.769 49.2898 54.9794 49.3776 55.1551 49.5533C55.3308 49.7289 55.4186 49.9394 55.4186 50.1847C55.4186 50.3471 55.3772 50.4962 55.2943 50.6321C55.2148 50.768 55.107 50.8774 54.9711 50.9602C54.8386 51.0398 54.6894 51.0795 54.5237 51.0795ZM59.2542 51L56.9275 43.3636H58.1604L59.811 49.2102H59.8905L61.5212 43.3636H62.7741L64.3849 49.1903H64.4644L66.115 43.3636H67.3479L65.0212 51H63.8678L62.1974 45.1335H62.078L60.4076 51H59.2542ZM71.841 51.1591C71.1052 51.1591 70.4705 50.9967 69.9369 50.6719C69.4066 50.3438 68.9972 49.8864 68.7089 49.2997C68.4239 48.7098 68.2813 48.0237 68.2813 47.2415C68.2813 46.4593 68.4239 45.7699 68.7089 45.1733C68.9972 44.5734 69.3983 44.1061 69.912 43.7713C70.4291 43.4332 71.0323 43.2642 71.7217 43.2642C72.1194 43.2642 72.5122 43.3305 72.8999 43.4631C73.2877 43.5956 73.6407 43.8111 73.9589 44.1094C74.2771 44.4044 74.5306 44.7955 74.7195 45.2827C74.9085 45.7699 75.0029 46.3698 75.0029 47.0824V47.5795H69.1166V46.5653H73.8097C73.8097 46.1345 73.7236 45.75 73.5512 45.4119C73.3822 45.0739 73.1402 44.8071 72.8254 44.6115C72.5138 44.416 72.1459 44.3182 71.7217 44.3182C71.2544 44.3182 70.85 44.4342 70.5086 44.6662C70.1705 44.8949 69.9104 45.1932 69.7281 45.5611C69.5458 45.929 69.4546 46.3234 69.4546 46.7443V47.4205C69.4546 47.9972 69.5541 48.486 69.7529 48.8871C69.9551 49.2848 70.2352 49.5881 70.5931 49.7969C70.9511 50.0024 71.367 50.1051 71.841 50.1051C72.1492 50.1051 72.4276 50.062 72.6762 49.9759C72.9281 49.8864 73.1452 49.7538 73.3275 49.5781C73.5098 49.3991 73.6507 49.1771 73.7501 48.9119L74.8836 49.2301C74.7643 49.6146 74.5638 49.9527 74.282 50.2443C74.0003 50.5327 73.6523 50.758 73.238 50.9205C72.8237 51.0795 72.358 51.1591 71.841 51.1591ZM76.9468 51V40.8182H78.1201V44.5767H78.2195C78.3057 44.4441 78.425 44.2751 78.5775 44.0696C78.7333 43.8608 78.9553 43.6752 79.2437 43.5128C79.5354 43.3471 79.9298 43.2642 80.4269 43.2642C81.0699 43.2642 81.6367 43.425 82.1272 43.7464C82.6178 44.0679 83.0006 44.5237 83.2757 45.1136C83.5508 45.7036 83.6883 46.3996 83.6883 47.2017C83.6883 48.0104 83.5508 48.7114 83.2757 49.3047C83.0006 49.8946 82.6194 50.352 82.1322 50.6768C81.645 50.9983 81.0832 51.1591 80.4468 51.1591C79.9563 51.1591 79.5635 51.0779 79.2686 50.9155C78.9736 50.7498 78.7465 50.5625 78.5874 50.3537C78.4284 50.1416 78.3057 49.9659 78.2195 49.8267H78.0803V51H76.9468ZM78.1002 47.1818C78.1002 47.7585 78.1847 48.2673 78.3538 48.7081C78.5228 49.1456 78.7697 49.4886 79.0945 49.7372C79.4194 49.9825 79.8171 50.1051 80.2877 50.1051C80.7783 50.1051 81.1876 49.9759 81.5157 49.7173C81.8472 49.4555 82.0957 49.1042 82.2615 48.6634C82.4305 48.2192 82.515 47.7254 82.515 47.1818C82.515 46.6449 82.4321 46.161 82.2664 45.7301C82.104 45.2959 81.8571 44.9529 81.5257 44.701C81.1975 44.4458 80.7849 44.3182 80.2877 44.3182C79.8105 44.3182 79.4094 44.4392 79.0846 44.6811C78.7598 44.9197 78.5145 45.2545 78.3488 45.6854C78.1831 46.1129 78.1002 46.6117 78.1002 47.1818ZM88.5853 51.1591C87.8694 51.1591 87.2529 50.9901 86.7359 50.652C86.2188 50.3139 85.8211 49.8482 85.5427 49.255C85.2643 48.6617 85.1251 47.9839 85.1251 47.2216C85.1251 46.446 85.2676 45.7616 85.5526 45.1683C85.841 44.5717 86.242 44.1061 86.7558 43.7713C87.2728 43.4332 87.876 43.2642 88.5654 43.2642C89.1024 43.2642 89.5863 43.3636 90.0171 43.5625C90.448 43.7614 90.801 44.0398 91.0761 44.3977C91.3512 44.7557 91.5219 45.1733 91.5882 45.6506H90.4149C90.3254 45.3026 90.1265 44.9943 89.8183 44.7259C89.5133 44.4541 89.1024 44.3182 88.5853 44.3182C88.1279 44.3182 87.7269 44.4375 87.3822 44.6761C87.0408 44.9115 86.774 45.2446 86.5818 45.6754C86.3928 46.103 86.2984 46.6051 86.2984 47.1818C86.2984 47.7718 86.3912 48.2855 86.5768 48.723C86.7657 49.1605 87.0309 49.5002 87.3722 49.7422C87.7169 49.9841 88.1213 50.1051 88.5853 50.1051C88.8902 50.1051 89.167 50.0521 89.4156 49.946C89.6642 49.84 89.8746 49.6875 90.047 49.4886C90.2193 49.2898 90.3419 49.0511 90.4149 48.7727H91.5882C91.5219 49.2235 91.3578 49.6295 91.096 49.9908C90.8374 50.3487 90.4944 50.6338 90.0669 50.8459C89.6426 51.0547 89.1488 51.1591 88.5853 51.1591ZM94.4767 40.8182V51H93.3034V40.8182H94.4767ZM96.6256 51V43.3636H97.7989V51H96.6256ZM97.2222 42.0909C96.9935 42.0909 96.7963 42.013 96.6306 41.8572C96.4682 41.7015 96.387 41.5142 96.387 41.2955C96.387 41.0767 96.4682 40.8894 96.6306 40.7337C96.7963 40.5779 96.9935 40.5 97.2222 40.5C97.4509 40.5 97.6465 40.5779 97.8089 40.7337C97.9746 40.8894 98.0574 41.0767 98.0574 41.2955C98.0574 41.5142 97.9746 41.7015 97.8089 41.8572C97.6465 42.013 97.4509 42.0909 97.2222 42.0909ZM99.9479 53.8636V43.3636H101.081V44.5767H101.221C101.307 44.4441 101.426 44.2751 101.579 44.0696C101.734 43.8608 101.956 43.6752 102.245 43.5128C102.536 43.3471 102.931 43.2642 103.428 43.2642C104.071 43.2642 104.638 43.425 105.128 43.7464C105.619 44.0679 106.002 44.5237 106.277 45.1136C106.552 45.7036 106.689 46.3996 106.689 47.2017C106.689 48.0104 106.552 48.7114 106.277 49.3047C106.002 49.8946 105.62 50.352 105.133 50.6768C104.646 50.9983 104.084 51.1591 103.448 51.1591C102.957 51.1591 102.565 51.0779 102.27 50.9155C101.975 50.7498 101.748 50.5625 101.589 50.3537C101.429 50.1416 101.307 49.9659 101.221 49.8267H101.121V53.8636H99.9479ZM101.101 47.1818C101.101 47.7585 101.186 48.2673 101.355 48.7081C101.524 49.1456 101.771 49.4886 102.096 49.7372C102.42 49.9825 102.818 50.1051 103.289 50.1051C103.779 50.1051 104.189 49.9759 104.517 49.7173C104.848 49.4555 105.097 49.1042 105.263 48.6634C105.432 48.2192 105.516 47.7254 105.516 47.1818C105.516 46.6449 105.433 46.161 105.267 45.7301C105.105 45.2959 104.858 44.9529 104.527 44.701C104.199 44.4458 103.786 44.3182 103.289 44.3182C102.812 44.3182 102.41 44.4392 102.086 44.6811C101.761 44.9197 101.516 45.2545 101.35 45.6854C101.184 46.1129 101.101 46.6117 101.101 47.1818Z" fill="black"/>
<path d="M140.678 40.3409L137.397 52.5312H136.323L139.604 40.3409H140.678Z" fill="white"/>
<rect x="149" y="32" width="96" height="28" rx="14" fill="white"/>
<path d="M169.206 51.0795C168.961 51.0795 168.751 50.9917 168.575 50.8161C168.399 50.6404 168.311 50.4299 168.311 50.1847C168.311 49.9394 168.399 49.7289 168.575 49.5533C168.751 49.3776 168.961 49.2898 169.206 49.2898C169.452 49.2898 169.662 49.3776 169.838 49.5533C170.013 49.7289 170.101 49.9394 170.101 50.1847C170.101 50.3471 170.06 50.4962 169.977 50.6321C169.897 50.768 169.79 50.8774 169.654 50.9602C169.521 51.0398 169.372 51.0795 169.206 51.0795ZM173.38 40.8182V51H172.207V40.8182H173.38ZM178.631 51.1591C177.942 51.1591 177.337 50.995 176.817 50.6669C176.3 50.3388 175.895 49.8797 175.604 49.2898C175.315 48.6998 175.171 48.0104 175.171 47.2216C175.171 46.4261 175.315 45.7318 175.604 45.1385C175.895 44.5452 176.3 44.0845 176.817 43.7564C177.337 43.4283 177.942 43.2642 178.631 43.2642C179.321 43.2642 179.924 43.4283 180.441 43.7564C180.961 44.0845 181.366 44.5452 181.654 45.1385C181.946 45.7318 182.091 46.4261 182.091 47.2216C182.091 48.0104 181.946 48.6998 181.654 49.2898C181.366 49.8797 180.961 50.3388 180.441 50.6669C179.924 50.995 179.321 51.1591 178.631 51.1591ZM178.631 50.1051C179.155 50.1051 179.586 49.9709 179.924 49.7024C180.262 49.4339 180.512 49.081 180.675 48.6435C180.837 48.206 180.918 47.732 180.918 47.2216C180.918 46.7112 180.837 46.2356 180.675 45.7947C180.512 45.3539 180.262 44.9976 179.924 44.7259C179.586 44.4541 179.155 44.3182 178.631 44.3182C178.108 44.3182 177.677 44.4541 177.339 44.7259C177.001 44.9976 176.75 45.3539 176.588 45.7947C176.425 46.2356 176.344 46.7112 176.344 47.2216C176.344 47.732 176.425 48.206 176.588 48.6435C176.75 49.081 177.001 49.4339 177.339 49.7024C177.677 49.9709 178.108 50.1051 178.631 50.1051ZM186.965 54.0227C186.398 54.0227 185.911 53.9498 185.503 53.804C185.096 53.6615 184.756 53.4725 184.484 53.2372C184.216 53.0052 184.002 52.7566 183.843 52.4915L184.777 51.8352C184.883 51.9744 185.018 52.1335 185.18 52.3125C185.342 52.4948 185.565 52.6522 185.846 52.7848C186.131 52.9207 186.504 52.9886 186.965 52.9886C187.581 52.9886 188.09 52.8395 188.491 52.5412C188.892 52.2429 189.093 51.7756 189.093 51.1392V49.5881H188.993C188.907 49.7273 188.784 49.8996 188.625 50.1051C188.47 50.3073 188.244 50.4879 187.949 50.647C187.658 50.8028 187.263 50.8807 186.766 50.8807C186.15 50.8807 185.596 50.7348 185.105 50.4432C184.618 50.1515 184.232 49.7273 183.947 49.1705C183.665 48.6136 183.525 47.9375 183.525 47.142C183.525 46.3598 183.662 45.6787 183.937 45.0987C184.212 44.5154 184.595 44.0646 185.086 43.7464C185.576 43.425 186.143 43.2642 186.786 43.2642C187.283 43.2642 187.677 43.3471 187.969 43.5128C188.264 43.6752 188.489 43.8608 188.645 44.0696C188.804 44.2751 188.927 44.4441 189.013 44.5767H189.132V43.3636H190.266V51.2188C190.266 51.875 190.117 52.4086 189.819 52.8196C189.524 53.2339 189.126 53.5372 188.625 53.7294C188.128 53.925 187.575 54.0227 186.965 54.0227ZM186.925 49.8267C187.396 49.8267 187.793 49.719 188.118 49.5036C188.443 49.2881 188.69 48.9782 188.859 48.5739C189.028 48.1695 189.113 47.6856 189.113 47.1222C189.113 46.572 189.03 46.0864 188.864 45.6655C188.698 45.2446 188.453 44.9148 188.128 44.6761C187.803 44.4375 187.402 44.3182 186.925 44.3182C186.428 44.3182 186.014 44.4441 185.682 44.696C185.354 44.9479 185.107 45.286 184.941 45.7102C184.779 46.1345 184.698 46.6051 184.698 47.1222C184.698 47.6525 184.781 48.1214 184.946 48.5291C185.115 48.9335 185.364 49.2517 185.692 49.4837C186.024 49.7124 186.435 49.8267 186.925 49.8267ZM195.516 51.1591C194.827 51.1591 194.222 50.995 193.701 50.6669C193.184 50.3388 192.78 49.8797 192.488 49.2898C192.2 48.6998 192.056 48.0104 192.056 47.2216C192.056 46.4261 192.2 45.7318 192.488 45.1385C192.78 44.5452 193.184 44.0845 193.701 43.7564C194.222 43.4283 194.827 43.2642 195.516 43.2642C196.205 43.2642 196.809 43.4283 197.326 43.7564C197.846 44.0845 198.25 44.5452 198.539 45.1385C198.83 45.7318 198.976 46.4261 198.976 47.2216C198.976 48.0104 198.83 48.6998 198.539 49.2898C198.25 49.8797 197.846 50.3388 197.326 50.6669C196.809 50.995 196.205 51.1591 195.516 51.1591ZM195.516 50.1051C196.04 50.1051 196.471 49.9709 196.809 49.7024C197.147 49.4339 197.397 49.081 197.559 48.6435C197.722 48.206 197.803 47.732 197.803 47.2216C197.803 46.7112 197.722 46.2356 197.559 45.7947C197.397 45.3539 197.147 44.9976 196.809 44.7259C196.471 44.4541 196.04 44.3182 195.516 44.3182C194.992 44.3182 194.561 44.4541 194.223 44.7259C193.885 44.9976 193.635 45.3539 193.473 45.7947C193.31 46.2356 193.229 46.7112 193.229 47.2216C193.229 47.732 193.31 48.206 193.473 48.6435C193.635 49.081 193.885 49.4339 194.223 49.7024C194.561 49.9709 194.992 50.1051 195.516 50.1051ZM205.142 46.0881V47.1818H200.688V46.0881H205.142ZM210.408 51.1591C209.673 51.1591 209.038 50.9967 208.504 50.6719C207.974 50.3438 207.565 49.8864 207.276 49.2997C206.991 48.7098 206.849 48.0237 206.849 47.2415C206.849 46.4593 206.991 45.7699 207.276 45.1733C207.565 44.5734 207.966 44.1061 208.479 43.7713C208.996 43.4332 209.6 43.2642 210.289 43.2642C210.687 43.2642 211.08 43.3305 211.467 43.4631C211.855 43.5956 212.208 43.8111 212.526 44.1094C212.844 44.4044 213.098 44.7955 213.287 45.2827C213.476 45.7699 213.57 46.3698 213.57 47.0824V47.5795H207.684V46.5653H212.377C212.377 46.1345 212.291 45.75 212.119 45.4119C211.95 45.0739 211.708 44.8071 211.393 44.6115C211.081 44.416 210.713 44.3182 210.289 44.3182C209.822 44.3182 209.417 44.4342 209.076 44.6662C208.738 44.8949 208.478 45.1932 208.295 45.5611C208.113 45.929 208.022 46.3234 208.022 46.7443V47.4205C208.022 47.9972 208.121 48.486 208.32 48.8871C208.522 49.2848 208.803 49.5881 209.161 49.7969C209.518 50.0024 209.934 50.1051 210.408 50.1051C210.717 50.1051 210.995 50.062 211.244 49.9759C211.496 49.8864 211.713 49.7538 211.895 49.5781C212.077 49.3991 212.218 49.1771 212.317 48.9119L213.451 49.2301C213.332 49.6146 213.131 49.9527 212.849 50.2443C212.568 50.5327 212.22 50.758 211.805 50.9205C211.391 51.0795 210.925 51.1591 210.408 51.1591ZM216.025 43.3636L217.855 46.4858L219.684 43.3636H221.036L218.57 47.1818L221.036 51H219.684L217.855 48.0369L216.025 51H214.673L217.099 47.1818L214.673 43.3636H216.025ZM226.032 43.3636V44.358H222.074V43.3636H226.032ZM223.228 41.5341H224.401V48.8125C224.401 49.1439 224.449 49.3925 224.545 49.5582C224.645 49.7206 224.77 49.83 224.923 49.8864C225.079 49.9394 225.243 49.9659 225.415 49.9659C225.544 49.9659 225.65 49.9593 225.733 49.946C225.816 49.9295 225.882 49.9162 225.932 49.9062L226.171 50.9602C226.091 50.9901 225.98 51.0199 225.838 51.0497C225.695 51.0829 225.515 51.0994 225.296 51.0994C224.964 51.0994 224.64 51.0282 224.321 50.8857C224.007 50.7431 223.745 50.526 223.536 50.2344C223.33 49.9427 223.228 49.5748 223.228 49.1307V41.5341Z" fill="black"/>
<path d="M510.546 51V50.1051L513.907 46.4261C514.301 45.9953 514.626 45.6207 514.881 45.3026C515.137 44.9811 515.326 44.6795 515.448 44.3977C515.574 44.1127 515.637 43.8144 515.637 43.5028C515.637 43.1449 515.551 42.835 515.379 42.5732C515.21 42.3113 514.978 42.1091 514.683 41.9666C514.388 41.8241 514.056 41.7528 513.688 41.7528C513.297 41.7528 512.956 41.834 512.664 41.9964C512.376 42.1555 512.152 42.3793 511.993 42.6676C511.837 42.956 511.759 43.294 511.759 43.6818H510.586C510.586 43.0852 510.723 42.5616 510.999 42.1108C511.274 41.66 511.648 41.3087 512.122 41.0568C512.599 40.8049 513.135 40.679 513.728 40.679C514.325 40.679 514.853 40.8049 515.314 41.0568C515.775 41.3087 516.136 41.6484 516.398 42.076C516.66 42.5036 516.79 42.9792 516.79 43.5028C516.79 43.8774 516.723 44.2436 516.587 44.6016C516.454 44.9562 516.222 45.3523 515.891 45.7898C515.562 46.224 515.107 46.7543 514.523 47.3807L512.237 49.8267V49.9062H516.969V51H510.546ZM522.205 51.1392C521.621 51.1392 521.096 51.0232 520.629 50.7912C520.161 50.5592 519.787 50.241 519.505 49.8366C519.223 49.4323 519.069 48.9716 519.043 48.4545H520.236C520.282 48.9152 520.491 49.2964 520.862 49.598C521.237 49.8963 521.684 50.0455 522.205 50.0455C522.622 50.0455 522.993 49.9477 523.318 49.7521C523.646 49.5566 523.903 49.2881 524.089 48.9467C524.278 48.602 524.372 48.2126 524.372 47.7784C524.372 47.3343 524.274 46.9382 524.079 46.5902C523.887 46.2389 523.621 45.9621 523.283 45.7599C522.945 45.5578 522.559 45.455 522.125 45.4517C521.813 45.4484 521.494 45.4964 521.165 45.5959C520.837 45.692 520.567 45.8163 520.355 45.9688L519.202 45.8295L519.818 40.8182H525.108V41.9119H520.852L520.494 44.9148H520.554C520.763 44.7491 521.025 44.6115 521.339 44.5021C521.654 44.3928 521.982 44.3381 522.324 44.3381C522.947 44.3381 523.502 44.4872 523.989 44.7855C524.48 45.0805 524.864 45.4848 525.143 45.9986C525.424 46.5123 525.565 47.099 525.565 47.7585C525.565 48.4081 525.42 48.9882 525.128 49.4986C524.839 50.0057 524.442 50.4067 523.935 50.7017C523.428 50.9934 522.851 51.1392 522.205 51.1392ZM530.921 51.1392C530.503 51.1326 530.086 51.053 529.668 50.9006C529.251 50.7481 528.869 50.4912 528.525 50.13C528.18 49.7654 527.903 49.2732 527.694 48.6534C527.486 48.0303 527.381 47.2481 527.381 46.3068C527.381 45.4053 527.466 44.6065 527.635 43.9105C527.804 43.2112 528.049 42.6229 528.371 42.1456C528.692 41.665 529.08 41.3004 529.534 41.0518C529.991 40.8033 530.507 40.679 531.08 40.679C531.65 40.679 532.157 40.7933 532.601 41.022C533.049 41.2474 533.413 41.5623 533.695 41.9666C533.977 42.371 534.159 42.8366 534.242 43.3636H533.029C532.916 42.9062 532.698 42.5268 532.373 42.2251C532.048 41.9235 531.617 41.7727 531.08 41.7727C530.291 41.7727 529.67 42.1158 529.216 42.8018C528.765 43.4879 528.538 44.4508 528.535 45.6903H528.614C528.8 45.4086 529.02 45.1683 529.275 44.9695C529.534 44.7673 529.819 44.6115 530.131 44.5021C530.442 44.3928 530.772 44.3381 531.12 44.3381C531.703 44.3381 532.237 44.4839 532.721 44.7756C533.205 45.0639 533.592 45.4633 533.884 45.9737C534.176 46.4808 534.322 47.0625 534.322 47.7188C534.322 48.3485 534.181 48.9252 533.899 49.4489C533.617 49.9692 533.221 50.3835 532.711 50.6918C532.204 50.9967 531.607 51.1458 530.921 51.1392ZM530.921 50.0455C531.339 50.0455 531.713 49.9411 532.045 49.7322C532.379 49.5234 532.643 49.2434 532.835 48.892C533.031 48.5407 533.128 48.1496 533.128 47.7188C533.128 47.2978 533.034 46.915 532.845 46.5703C532.659 46.2223 532.403 45.9455 532.074 45.7401C531.75 45.5346 531.378 45.4318 530.961 45.4318C530.646 45.4318 530.353 45.4948 530.081 45.6207C529.809 45.7434 529.57 45.9124 529.365 46.1278C529.163 46.3433 529.004 46.5902 528.888 46.8686C528.772 47.1437 528.714 47.4337 528.714 47.7386C528.714 48.143 528.808 48.5208 528.997 48.8722C529.189 49.2235 529.451 49.5069 529.782 49.7223C530.117 49.9377 530.497 50.0455 530.921 50.0455ZM536.297 53.8636V43.3636H537.43V44.5767H537.569C537.655 44.4441 537.775 44.2751 537.927 44.0696C538.083 43.8608 538.305 43.6752 538.593 43.5128C538.885 43.3471 539.279 43.2642 539.777 43.2642C540.42 43.2642 540.986 43.425 541.477 43.7464C541.967 44.0679 542.35 44.5237 542.625 45.1136C542.9 45.7036 543.038 46.3996 543.038 47.2017C543.038 48.0104 542.9 48.7114 542.625 49.3047C542.35 49.8946 541.969 50.352 541.482 50.6768C540.995 50.9983 540.433 51.1591 539.797 51.1591C539.306 51.1591 538.913 51.0779 538.618 50.9155C538.323 50.7498 538.096 50.5625 537.937 50.3537C537.778 50.1416 537.655 49.9659 537.569 49.8267H537.47V53.8636H536.297ZM537.45 47.1818C537.45 47.7585 537.534 48.2673 537.703 48.7081C537.873 49.1456 538.119 49.4886 538.444 49.7372C538.769 49.9825 539.167 50.1051 539.637 50.1051C540.128 50.1051 540.537 49.9759 540.865 49.7173C541.197 49.4555 541.445 49.1042 541.611 48.6634C541.78 48.2192 541.865 47.7254 541.865 47.1818C541.865 46.6449 541.782 46.161 541.616 45.7301C541.454 45.2959 541.207 44.9529 540.875 44.701C540.547 44.4458 540.135 44.3182 539.637 44.3182C539.16 44.3182 538.759 44.4392 538.434 44.6811C538.109 44.9197 537.864 45.2545 537.699 45.6854C537.533 46.1129 537.45 46.6117 537.45 47.1818ZM545.388 43.3636L547.218 46.4858L549.047 43.3636H550.4L547.934 47.1818L550.4 51H549.047L547.218 48.0369L545.388 51H544.036L546.462 47.1818L544.036 43.3636H545.388ZM554.023 46.5455L554.102 44.358L552.253 45.5312L551.776 44.696L553.724 43.6818L551.776 42.6676L552.253 41.8324L554.102 43.0057L554.023 40.8182H554.977L554.898 43.0057L556.747 41.8324L557.224 42.6676L555.276 43.6818L557.224 44.696L556.747 45.5312L554.898 44.358L554.977 46.5455H554.023ZM559.054 51V50.1051L562.415 46.4261C562.809 45.9953 563.134 45.6207 563.389 45.3026C563.644 44.9811 563.833 44.6795 563.956 44.3977C564.082 44.1127 564.145 43.8144 564.145 43.5028C564.145 43.1449 564.059 42.835 563.886 42.5732C563.717 42.3113 563.485 42.1091 563.19 41.9666C562.895 41.8241 562.564 41.7528 562.196 41.7528C561.805 41.7528 561.464 41.834 561.172 41.9964C560.884 42.1555 560.66 42.3793 560.501 42.6676C560.345 42.956 560.267 43.294 560.267 43.6818H559.094C559.094 43.0852 559.231 42.5616 559.506 42.1108C559.781 41.66 560.156 41.3087 560.63 41.0568C561.107 40.8049 561.643 40.679 562.236 40.679C562.832 40.679 563.361 40.8049 563.822 41.0568C564.282 41.3087 564.644 41.6484 564.906 42.076C565.167 42.5036 565.298 42.9792 565.298 43.5028C565.298 43.8774 565.23 44.2436 565.094 44.6016C564.962 44.9562 564.73 45.3523 564.398 45.7898C564.07 46.224 563.615 46.7543 563.031 47.3807L560.744 49.8267V49.9062H565.477V51H559.054ZM570.712 51.1392C570.129 51.1392 569.604 51.0232 569.136 50.7912C568.669 50.5592 568.295 50.241 568.013 49.8366C567.731 49.4323 567.577 48.9716 567.55 48.4545H568.744C568.79 48.9152 568.999 49.2964 569.37 49.598C569.745 49.8963 570.192 50.0455 570.712 50.0455C571.13 50.0455 571.501 49.9477 571.826 49.7521C572.154 49.5566 572.411 49.2881 572.597 48.9467C572.786 48.602 572.88 48.2126 572.88 47.7784C572.88 47.3343 572.782 46.9382 572.587 46.5902C572.394 46.2389 572.129 45.9621 571.791 45.7599C571.453 45.5578 571.067 45.455 570.633 45.4517C570.321 45.4484 570.001 45.4964 569.673 45.5959C569.345 45.692 569.075 45.8163 568.863 45.9688L567.71 45.8295L568.326 40.8182H573.616V41.9119H569.36L569.002 44.9148H569.062C569.271 44.7491 569.532 44.6115 569.847 44.5021C570.162 44.3928 570.49 44.3381 570.832 44.3381C571.455 44.3381 572.01 44.4872 572.497 44.7855C572.988 45.0805 573.372 45.4848 573.651 45.9986C573.932 46.5123 574.073 47.099 574.073 47.7585C574.073 48.4081 573.927 48.9882 573.636 49.4986C573.347 50.0057 572.95 50.4067 572.442 50.7017C571.935 50.9934 571.359 51.1392 570.712 51.1392ZM579.429 51.1392C579.011 51.1326 578.594 51.053 578.176 50.9006C577.758 50.7481 577.377 50.4912 577.032 50.13C576.688 49.7654 576.411 49.2732 576.202 48.6534C575.993 48.0303 575.889 47.2481 575.889 46.3068C575.889 45.4053 575.974 44.6065 576.143 43.9105C576.312 43.2112 576.557 42.6229 576.878 42.1456C577.2 41.665 577.588 41.3004 578.042 41.0518C578.499 40.8033 579.015 40.679 579.588 40.679C580.158 40.679 580.665 40.7933 581.109 41.022C581.557 41.2474 581.921 41.5623 582.203 41.9666C582.485 42.371 582.667 42.8366 582.75 43.3636H581.537C581.424 42.9062 581.205 42.5268 580.881 42.2251C580.556 41.9235 580.125 41.7727 579.588 41.7727C578.799 41.7727 578.178 42.1158 577.724 42.8018C577.273 43.4879 577.046 44.4508 577.042 45.6903H577.122C577.308 45.4086 577.528 45.1683 577.783 44.9695C578.042 44.7673 578.327 44.6115 578.638 44.5021C578.95 44.3928 579.28 44.3381 579.628 44.3381C580.211 44.3381 580.745 44.4839 581.229 44.7756C581.712 45.0639 582.1 45.4633 582.392 45.9737C582.684 46.4808 582.829 47.0625 582.829 47.7188C582.829 48.3485 582.689 48.9252 582.407 49.4489C582.125 49.9692 581.729 50.3835 581.219 50.6918C580.711 50.9967 580.115 51.1458 579.429 51.1392ZM579.429 50.0455C579.846 50.0455 580.221 49.9411 580.552 49.7322C580.887 49.5234 581.151 49.2434 581.343 48.892C581.538 48.5407 581.636 48.1496 581.636 47.7188C581.636 47.2978 581.542 46.915 581.353 46.5703C581.167 46.2223 580.91 45.9455 580.582 45.7401C580.257 45.5346 579.886 45.4318 579.469 45.4318C579.154 45.4318 578.86 45.4948 578.589 45.6207C578.317 45.7434 578.078 45.9124 577.873 46.1278C577.671 46.3433 577.511 46.5902 577.395 46.8686C577.279 47.1437 577.221 47.4337 577.221 47.7386C577.221 48.143 577.316 48.5208 577.505 48.8722C577.697 49.2235 577.959 49.5069 578.29 49.7223C578.625 49.9377 579.005 50.0455 579.429 50.0455ZM584.804 53.8636V43.3636H585.938V44.5767H586.077C586.163 44.4441 586.283 44.2751 586.435 44.0696C586.591 43.8608 586.813 43.6752 587.101 43.5128C587.393 43.3471 587.787 43.2642 588.284 43.2642C588.927 43.2642 589.494 43.425 589.985 43.7464C590.475 44.0679 590.858 44.5237 591.133 45.1136C591.408 45.7036 591.546 46.3996 591.546 47.2017C591.546 48.0104 591.408 48.7114 591.133 49.3047C590.858 49.8946 590.477 50.352 589.99 50.6768C589.502 50.9983 588.941 51.1591 588.304 51.1591C587.814 51.1591 587.421 51.0779 587.126 50.9155C586.831 50.7498 586.604 50.5625 586.445 50.3537C586.286 50.1416 586.163 49.9659 586.077 49.8267H585.978V53.8636H584.804ZM585.958 47.1818C585.958 47.7585 586.042 48.2673 586.211 48.7081C586.38 49.1456 586.627 49.4886 586.952 49.7372C587.277 49.9825 587.675 50.1051 588.145 50.1051C588.636 50.1051 589.045 49.9759 589.373 49.7173C589.705 49.4555 589.953 49.1042 590.119 48.6634C590.288 48.2192 590.373 47.7254 590.373 47.1818C590.373 46.6449 590.29 46.161 590.124 45.7301C589.962 45.2959 589.715 44.9529 589.383 44.701C589.055 44.4458 588.642 44.3182 588.145 44.3182C587.668 44.3182 587.267 44.4392 586.942 44.6811C586.617 44.9197 586.372 45.2545 586.206 45.6854C586.041 46.1129 585.958 46.6117 585.958 47.1818ZM593.896 43.3636L595.726 46.4858L597.555 43.3636H598.907L596.442 47.1818L598.907 51H597.555L595.726 48.0369L593.896 51H592.544L594.97 47.1818L592.544 43.3636H593.896Z" fill="white"/>
<rect x="32" y="160" width="256" height="256" rx="24" fill="#F9F9F9"/>
<path d="M229.636 252.57C226.097 255.864 222.694 259.03 219.283 262.208C217.597 260.778 215.763 259.057 213.76 257.555C211.119 255.577 208.214 254.181 204.792 254.102C201.502 254.026 198.868 255.242 197.099 257.985C192.737 264.729 188.485 271.54 184.165 278.31C178.358 287.409 172.661 296.579 166.681 305.561C158.415 317.973 146.405 323.165 131.781 322.984C123.247 322.878 115.271 320.931 108.223 315.905C107.216 315.184 106.258 314.391 105.009 313.429C105.009 324.965 105.009 336.23 105.009 347.608C99.919 347.608 95.0406 347.608 90 347.608C90 311.787 90 275.922 90 239.931C94.9161 239.931 99.8436 239.931 104.918 239.931C104.918 243.109 104.918 246.23 104.918 249.739C106.099 248.819 106.99 248.09 107.918 247.411C116.652 240.981 126.492 238.977 137.124 240.128C151.721 241.709 162.108 249.351 168.96 262.151C169.65 263.442 169.533 264.363 168.722 265.548C165.364 270.461 162.12 275.446 158.928 280.258C157.996 276.91 157.249 273.457 156.079 270.155C152.831 260.997 145.681 256.366 136.626 254.592C121.059 251.543 107.005 262.582 105.035 278.326C103.288 292.277 113.083 306.04 126.929 308.327C138.165 310.18 147.79 306.587 154.566 297.251C159.939 289.847 164.7 281.994 169.696 274.318C174.793 266.48 180.064 258.744 184.859 250.724C191.296 239.965 204.512 237.49 214.922 241.879C220.513 244.234 225.12 247.951 229.636 252.57Z" fill="#131117"/>
<path d="M176.984 311.548C177.516 310.926 185.952 299.257 186.344 298.801C188.544 300.888 190.502 303.02 192.736 304.805C196.377 307.714 200.549 309.126 205.217 307.854C209.023 306.816 211.936 304.507 212.842 300.544C213.77 296.487 212.034 293.314 208.639 291.03C207.495 290.261 205.469 288.981 204.266 288.31C202.926 287.419 198.874 285.113 194.992 282.894C191.894 280.875 191.37 280.773 189.385 279.426C192.113 275.12 194.75 270.958 197.158 267.158C201.493 269.709 205.764 272.037 209.838 274.671C213.823 277.249 218.067 279.671 221.395 282.974C230.733 292.238 229.435 308.348 219.063 316.922C209.94 324.462 195.886 324.753 185.197 317.62C181.972 315.469 182.326 315.933 176.984 311.548Z" fill="#131117"/>
</g>
<defs>
<clipPath id="clip0_2865_24">
<rect width="632" height="448" fill="white"/>
</clipPath>
</defs>
</svg>
