<svg fill="none" height="40" viewBox="0 0 40 40" width="40" xmlns="http://www.w3.org/2000/svg"><rect fill="#f55d3e" height="40" rx="20" width="40"/><path d="m10.6875 26.9844c0 1.2841 1.044 2.3281 2.3281 2.3281h8.1485c1.2841 0 2.3281-1.044 2.3281-2.3281v-2.3282h-4.6563c-1.9279 0-3.4921-1.5642-3.4921-3.4921v-4.6563h-2.3282c-1.2841 0-2.3281 1.044-2.3281 2.3281zm8.1484-3.4922h8.1485c1.2841 0 2.3281-1.044 2.3281-2.3281v-8.1485c0-1.2841-1.044-2.3281-2.3281-2.3281h-8.1485c-1.2841 0-2.3281 1.044-2.3281 2.3281v8.1485c0 1.2841 1.044 2.3281 2.3281 2.3281z" fill="#fff"/></svg>