<svg width="512" height="512" viewBox="0 0 512 512" fill="none" xmlns="http://www.w3.org/2000/svg">
<g clip-path="url(#clip0_1710_32)">
<path d="M35.1903 171.1C-11.7197 217.1 -11.7197 294 35.1903 340.9L171.1 476.8C217.1 523.7 294 523.7 340.9 476.8L476.8 340.9C523.7 294 523.7 217.1 476.8 171.1L340.9 35.1898C294 -11.7202 217.1 -11.7202 171.1 35.1898L35.1903 171.1ZM315.5 315.5C282.6 348.3 229.4 348.3 196.6 315.5C163.7 282.6 163.7 229.4 196.6 196.6C229.4 163.7 282.6 163.7 315.5 196.6C348.3 229.4 348.3 282.6 315.5 315.5Z" fill="#131117" fill-opacity="0.9"/>
</g>
<defs>
<clipPath id="clip0_1710_32">
<rect width="512" height="512" fill="white"/>
</clipPath>
</defs>
</svg>
