<svg width="40" height="40" viewBox="0 0 40 40" fill="none" xmlns="http://www.w3.org/2000/svg">
<rect width="40" height="40" rx="20" fill="#131117"/>
<path d="M22.1679 11.4714V25.366C22.1679 26.9208 23.2416 27.7871 24.3784 27.7871C25.4311 27.7871 26.589 27.0502 26.589 25.366V11.5766C26.589 10.1514 25.5363 9.26086 24.3784 9.26086C23.2205 9.26086 22.1679 10.243 22.1679 11.4714Z" fill="white" fill-opacity="0.825"/>
<path d="M16.3785 18.5239V25.366C16.3785 26.9207 17.4522 27.787 18.589 27.787C19.6416 27.787 20.7995 27.0502 20.7995 25.366V18.6292C20.7995 17.2039 19.7469 16.3134 18.589 16.3134C17.4311 16.3134 16.3785 17.2955 16.3785 18.5239Z" fill="white"/>
<path d="M12.7995 27.7871C14.0203 27.7871 15.01 26.7974 15.01 25.5765C15.01 24.3557 14.0203 23.366 12.7995 23.366C11.5786 23.366 10.5889 24.3557 10.5889 25.5765C10.5889 26.7974 11.5786 27.7871 12.7995 27.7871Z" fill="white"/>
</svg>
