<svg width="16" height="16" viewBox="0 0 16 16" fill="none" xmlns="http://www.w3.org/2000/svg">
<path d="M3.58143 14.9997H0.264286V5.65281H3.58143V14.9997ZM1.92107 4.37781C0.860357 4.37781 0 3.60906 0 2.68094C7.5e-09 2.23512 0.202398 1.80757 0.562668 1.49233C0.922939 1.1771 1.41157 1 1.92107 1C2.43057 1 2.9192 1.1771 3.27948 1.49233C3.63975 1.80757 3.84214 2.23512 3.84214 2.68094C3.84214 3.60906 2.98143 4.37781 1.92107 4.37781ZM15.9964 14.9997H12.6864V10.4497C12.6864 9.36531 12.6614 7.97469 10.9618 7.97469C9.23714 7.97469 8.97286 9.15281 8.97286 10.3716V14.9997H5.65929V5.65281H8.84071V6.92781H8.88714C9.33 6.19344 10.4118 5.41844 12.0257 5.41844C15.3829 5.41844 16 7.35281 16 9.86531V14.9997H15.9964Z" fill="white" fill-opacity="0.9"/>
</svg>
