<svg width="122" height="96" viewBox="0 0 122 96" fill="none" xmlns="http://www.w3.org/2000/svg">
<path d="M121.027 11.3567C117.96 14.2908 115.01 17.1108 112.054 19.9406C110.592 18.6668 109.003 17.1342 107.267 15.7966C104.978 14.0354 102.46 12.7918 99.4936 12.7212C96.642 12.654 94.3594 13.7362 92.8258 16.1798C89.0454 22.1858 85.36 28.2524 81.6158 34.282C76.583 42.3854 71.6452 50.5526 66.462 58.5518C59.2972 69.6062 48.8884 74.2308 36.2134 74.0696C28.8164 73.9754 21.9032 72.2412 15.7947 67.7642C14.9216 67.1224 14.091 66.4166 13.0086 65.5594C13.0086 75.834 13.0086 85.8666 13.0086 96C8.59716 96 4.36888 96 0 96C0 64.0974 0 32.1546 0 0.100747C4.26098 0.100747 8.53176 0.100747 12.9301 0.100747C12.9301 2.93071 12.9301 5.71025 12.9301 8.83597C13.9536 8.01589 14.7254 7.36721 15.5298 6.76223C23.1002 1.03509 31.6286 -0.749593 40.8438 0.275507C53.496 1.68377 62.4986 8.48979 68.4372 19.8902C69.0356 21.0398 68.9342 21.8598 68.2312 22.9152C65.3208 27.2912 62.5084 31.731 59.7418 36.0164C58.9342 33.0352 58.2866 29.9598 57.273 27.019C54.4574 18.8618 48.2604 14.7378 40.4122 13.1582C26.9196 10.4425 14.7384 20.2734 13.0314 34.2954C11.5174 46.721 20.0066 58.9786 32.008 61.0154C41.7464 62.6656 50.0884 59.466 55.9616 51.1508C60.6182 44.5566 64.7452 37.5624 69.0748 30.7262C73.4928 23.7454 78.0612 16.8552 82.2174 9.71319C87.7962 0.130987 99.2516 -2.07383 108.274 1.83501C113.12 3.93227 117.113 7.24285 121.027 11.3567Z" fill="#131117"/>
<path d="M75.3896 63.8831C75.8508 63.3285 83.1628 52.9363 83.5028 52.5295C85.4094 54.3881 87.1066 56.2871 89.0424 57.8769C92.1981 60.4683 95.8148 61.7253 99.86 60.5925C103.16 59.6683 105.684 57.6113 106.469 54.0823C107.273 50.4693 105.769 47.6427 102.826 45.6093C101.835 44.9237 100.079 43.7843 99.036 43.1861C97.875 42.3929 94.363 40.3393 90.998 38.3629C88.3132 36.5649 87.8586 36.4741 86.1386 35.2743C88.5028 31.4393 90.7886 27.7321 92.875 24.3477C96.6324 26.6197 100.334 28.6933 103.866 31.0393C107.319 33.3349 110.998 35.4927 113.882 38.4335C121.976 46.6849 120.851 61.0329 111.861 68.6691C103.954 75.3843 91.7731 75.6431 82.5089 69.2909C79.7129 67.3751 80.0202 67.7885 75.3896 63.8831Z" fill="#131117"/>
</svg>
