<svg width="339" height="47" viewBox="0 0 339 47" fill="none" xmlns="http://www.w3.org/2000/svg">
<path d="M0.0273438 46.0579V10.9255H3.48254L3.57475 16.9387L2.92975 17.0336C3.20615 15.834 3.80495 14.7449 4.72635 13.7665C5.64775 12.7563 6.76876 11.9515 8.08936 11.3517C9.40996 10.7519 10.8074 10.4521 12.2816 10.4521C14.4314 10.4521 16.3507 11.0045 18.0399 12.1093C19.7599 13.2141 21.1266 14.7293 22.1402 16.6547C23.1536 18.5801 23.6604 20.7898 23.6604 23.2836C23.6604 25.7456 23.169 27.9393 22.1862 29.8649C21.2034 31.7903 19.852 33.3213 18.1322 34.4575C16.4124 35.5623 14.4773 36.1147 12.3275 36.1147C10.8227 36.1147 9.39455 35.7991 8.04335 35.1679C6.69195 34.5365 5.54015 33.7157 4.58815 32.7057C3.63615 31.6641 3.00656 30.5435 2.69936 29.3439H3.52855V46.0579H0.0273438ZM11.7747 32.7057C13.4025 32.7057 14.8459 32.2954 16.1051 31.4748C17.3643 30.654 18.3625 29.5333 19.0995 28.1129C19.8367 26.6925 20.2052 25.0828 20.2052 23.2836C20.2052 21.4528 19.8367 19.8271 19.0995 18.4065C18.3625 16.9861 17.3643 15.8655 16.1051 15.0449C14.8459 14.2241 13.4025 13.8139 11.7747 13.8139C10.1469 13.8139 8.68815 14.2241 7.39835 15.0449C6.13915 15.8339 5.14095 16.9387 4.40395 18.3593C3.66675 19.7797 3.29836 21.4053 3.29836 23.2361C3.29836 25.0669 3.66675 26.6925 4.40395 28.1129C5.14095 29.5333 6.13915 30.654 7.39835 31.4748C8.68815 32.2954 10.1469 32.7057 11.7747 32.7057Z" fill="#131117"/>
<path d="M40.9623 36.1143C38.8743 36.1143 36.9843 35.5619 35.2963 34.4571C33.6063 33.3209 32.2705 31.7899 31.2877 29.8645C30.3049 27.9073 29.8135 25.6977 29.8135 23.2357C29.8135 20.7421 30.3203 18.5325 31.3337 16.6069C32.3471 14.6815 33.6983 13.1663 35.3883 12.0615C37.1083 10.9567 39.0263 10.4043 41.1463 10.4043C42.4063 10.4043 43.5723 10.5937 44.6483 10.9725C45.7223 11.3513 46.6743 11.8879 47.5043 12.5823C48.3643 13.2453 49.0703 14.0343 49.6223 14.9497C50.2063 15.8335 50.6063 16.7963 50.8203 17.8379L49.8063 17.3171L49.9443 10.9251H53.4003V35.6409H49.8983V29.5803L50.8203 28.9649C50.6063 29.9117 50.1903 30.8271 49.5763 31.7109C48.9623 32.5633 48.2103 33.3209 47.3183 33.9837C46.4603 34.6465 45.4763 35.1675 44.3703 35.5461C43.2963 35.9249 42.1603 36.1143 40.9623 36.1143ZM41.7443 32.7053C43.3423 32.7053 44.7703 32.3107 46.0303 31.5217C47.2883 30.7009 48.2723 29.5803 48.9783 28.1599C49.7143 26.7079 50.0843 25.0665 50.0843 23.2357C50.0843 21.4049 49.7143 19.7793 48.9783 18.3589C48.2723 16.9383 47.2883 15.8179 46.0303 14.9971C44.7703 14.1765 43.3423 13.7661 41.7443 13.7661C40.1183 13.7661 38.6743 14.1765 37.4143 14.9971C36.1863 15.8179 35.2043 16.9383 34.4663 18.3589C33.7603 19.7793 33.4063 21.4049 33.4063 23.2357C33.4063 25.0349 33.7603 26.6605 34.4663 28.1125C35.1723 29.5329 36.1563 30.6535 37.4143 31.4743C38.6743 32.2949 40.1183 32.7053 41.7443 32.7053Z" fill="#131117"/>
<path d="M75.2178 36.1145C74.0818 36.1145 72.9758 35.9409 71.9018 35.5937C70.8258 35.2149 69.8438 34.7099 68.9518 34.0785C68.0938 33.4473 67.3558 32.7213 66.7418 31.9005C66.1578 31.0799 65.7578 30.2277 65.5438 29.3437L66.5578 29.3911L66.4198 35.5937H63.0098V0.603516H66.4658V16.8439L65.7738 17.0333C65.9898 16.1495 66.3738 15.3129 66.9258 14.5239C67.5098 13.7031 68.2318 12.9929 69.0918 12.3931C69.9518 11.7619 70.8878 11.2725 71.9018 10.9253C72.9458 10.5781 74.0198 10.4045 75.1258 10.4045C77.2758 10.4045 79.1958 10.9569 80.8838 12.0617C82.6038 13.1665 83.9718 14.6817 84.9838 16.6071C85.9978 18.5327 86.5038 20.7423 86.5038 23.2359C86.5038 25.7295 86.0138 27.9549 85.0298 29.9119C84.0478 31.8375 82.6958 33.3525 80.9758 34.4573C79.2878 35.5621 77.3678 36.1145 75.2178 36.1145ZM74.6658 32.7529C76.2938 32.7529 77.7358 32.3425 78.9958 31.5219C80.2538 30.6695 81.2378 29.5331 81.9438 28.1127C82.6818 26.6607 83.0498 25.0351 83.0498 23.2359C83.0498 21.4051 82.6818 19.7795 81.9438 18.3591C81.2378 16.9385 80.2538 15.8181 78.9958 14.9973C77.7358 14.1767 76.2938 13.7663 74.6658 13.7663C73.0378 13.7663 71.5938 14.1767 70.3358 14.9973C69.0758 15.8181 68.0778 16.9385 67.3398 18.3591C66.6338 19.7795 66.2818 21.4051 66.2818 23.2359C66.2818 25.0667 66.6338 26.7081 67.3398 28.1601C68.0778 29.5805 69.0758 30.7011 70.3358 31.5219C71.5938 32.3425 73.0378 32.7529 74.6658 32.7529Z" fill="#131117"/>
<path d="M94.5039 35.6411V0.603516H97.9579V35.6411H94.5039Z" fill="#131117"/>
<path d="M117.83 36.1143C115.434 36.1143 113.3 35.5619 111.426 34.4571C109.584 33.3523 108.124 31.8215 107.05 29.8645C106.006 27.9073 105.484 25.6819 105.484 23.1883C105.484 20.7263 106.006 18.5325 107.05 16.6069C108.124 14.6815 109.584 13.1663 111.426 12.0615C113.3 10.9567 115.434 10.4043 117.83 10.4043C120.194 10.4043 122.298 10.9567 124.142 12.0615C126.014 13.1663 127.474 14.6815 128.518 16.6069C129.592 18.5325 130.13 20.7263 130.13 23.1883C130.13 25.6819 129.592 27.9073 128.518 29.8645C127.474 31.8215 126.014 33.3523 124.142 34.4571C122.298 35.5619 120.194 36.1143 117.83 36.1143ZM117.83 32.7527C119.518 32.7527 121.024 32.3423 122.344 31.5217C123.666 30.6693 124.694 29.5329 125.432 28.1125C126.168 26.6605 126.536 25.0191 126.536 23.1883C126.536 21.3575 126.168 19.7319 125.432 18.3115C124.694 16.8911 123.666 15.7863 122.344 14.9971C121.024 14.1765 119.518 13.7661 117.83 13.7661C116.14 13.7661 114.62 14.1765 113.27 14.9971C111.948 15.7863 110.904 16.9069 110.136 18.3589C109.4 19.7793 109.046 21.3891 109.076 23.1883C109.046 25.0191 109.4 26.6605 110.136 28.1125C110.904 29.5329 111.948 30.6693 113.27 31.5217C114.62 32.3423 116.14 32.7527 117.83 32.7527Z" fill="#131117"/>
<path d="M146.204 36.1145C143.808 36.1145 141.69 35.7201 139.846 34.9309C138.034 34.1417 136.59 33.0843 135.516 31.7585L139.984 27.7813C140.936 28.7599 142.012 29.4859 143.21 29.9593C144.408 30.4013 145.544 30.6221 146.618 30.6221C147.048 30.6221 147.432 30.5749 147.77 30.4801C148.108 30.3855 148.384 30.2591 148.6 30.1013C148.844 29.9119 149.03 29.7067 149.152 29.4859C149.274 29.2333 149.336 28.9493 149.336 28.6335C149.336 28.0023 149.06 27.5129 148.508 27.1657C148.23 27.0079 147.77 26.8185 147.126 26.5975C146.48 26.3767 145.65 26.1241 144.638 25.8401C143.194 25.4613 141.934 25.0193 140.86 24.5143C139.816 23.9777 138.956 23.3621 138.28 22.6677C137.666 22.0049 137.19 21.2789 136.852 20.4897C136.514 19.6689 136.346 18.7535 136.346 17.7435C136.346 16.5755 136.606 15.5181 137.128 14.5711C137.682 13.6243 138.402 12.8035 139.294 12.1091C140.214 11.4147 141.26 10.8939 142.426 10.5465C143.624 10.1677 144.852 9.97852 146.112 9.97852C147.462 9.97852 148.752 10.1363 149.982 10.4519C151.21 10.7675 152.346 11.2095 153.39 11.7777C154.466 12.3459 155.418 13.0245 156.246 13.8137L152.376 18.2643C151.824 17.7277 151.194 17.2543 150.488 16.8439C149.812 16.4019 149.106 16.0547 148.368 15.8023C147.632 15.5497 146.956 15.4235 146.342 15.4235C145.882 15.4235 145.466 15.4707 145.098 15.5655C144.76 15.6287 144.468 15.7549 144.222 15.9443C143.978 16.1021 143.792 16.3073 143.67 16.5597C143.548 16.7807 143.486 17.0491 143.486 17.3647C143.486 17.6803 143.562 17.9803 143.716 18.2643C143.9 18.5485 144.146 18.7851 144.454 18.9745C144.76 19.1639 145.252 19.3849 145.928 19.6375C146.604 19.8583 147.524 20.1425 148.692 20.4897C150.134 20.9001 151.378 21.3577 152.422 21.8627C153.468 22.3679 154.296 22.9675 154.91 23.6621C155.402 24.1987 155.77 24.8299 156.016 25.5559C156.262 26.2503 156.384 27.0079 156.384 27.8287C156.384 29.4385 155.94 30.8747 155.048 32.1373C154.188 33.3683 152.992 34.3469 151.456 35.0729C149.92 35.7673 148.17 36.1145 146.204 36.1145Z" fill="#131117"/>
<path d="M172.675 36.0673C170.619 36.0673 168.775 35.5149 167.147 34.4101C165.551 33.2737 164.277 31.7269 163.325 29.7699C162.371 27.7813 161.895 25.5401 161.895 23.0465C161.895 20.4897 162.371 18.2327 163.325 16.2757C164.277 14.3187 165.581 12.7877 167.239 11.6829C168.899 10.5465 170.787 9.97852 172.907 9.97852C174.073 9.97852 175.133 10.1521 176.085 10.4993C177.067 10.8465 177.927 11.3357 178.665 11.9671C179.401 12.5667 180.031 13.2769 180.553 14.0977C181.075 14.8869 181.459 15.7391 181.705 16.6545L180.185 16.4651V10.4993H187.509V35.6411H180.047V29.5805L181.705 29.5331C181.459 30.4171 181.061 31.2535 180.507 32.0427C179.955 32.8317 179.279 33.5263 178.481 34.1259C177.681 34.7257 176.791 35.1991 175.809 35.5463C174.825 35.8937 173.781 36.0673 172.675 36.0673ZM174.703 29.6753C175.839 29.6753 176.823 29.4069 177.651 28.8703C178.481 28.3337 179.125 27.5761 179.587 26.5975C180.047 25.5875 180.277 24.4037 180.277 23.0465C180.277 21.6891 180.047 20.5213 179.587 19.5427C179.125 18.5327 178.481 17.7593 177.651 17.2227C176.823 16.6545 175.839 16.3705 174.703 16.3705C173.597 16.3705 172.629 16.6545 171.801 17.2227C171.003 17.7593 170.373 18.5327 169.911 19.5427C169.451 20.5213 169.221 21.6891 169.221 23.0465C169.221 24.4037 169.451 25.5875 169.911 26.5975C170.373 27.5761 171.003 28.3337 171.801 28.8703C172.629 29.4069 173.597 29.6753 174.703 29.6753Z" fill="#131117"/>
<path d="M196.893 35.6411V10.4993H203.895L204.125 15.6129L202.651 16.1811C202.989 15.0447 203.587 14.0187 204.447 13.1033C205.339 12.1565 206.397 11.3989 207.627 10.8307C208.855 10.2625 210.145 9.97852 211.497 9.97852C213.339 9.97852 214.889 10.3729 216.149 11.1621C217.409 11.9197 218.361 13.0719 219.005 14.6185C219.651 16.1337 219.973 17.9961 219.973 20.2057V35.6411H212.555V20.8211C212.555 19.8111 212.417 18.9745 212.141 18.3117C211.865 17.6487 211.435 17.1595 210.851 16.8439C210.299 16.4967 209.607 16.3389 208.779 16.3705C208.133 16.3705 207.535 16.4809 206.981 16.7019C206.429 16.8913 205.953 17.1911 205.553 17.6015C205.155 17.9803 204.831 18.4221 204.585 18.9273C204.371 19.4323 204.263 19.9847 204.263 20.5843V35.6411H200.625C199.765 35.6411 199.027 35.6411 198.413 35.6411C197.799 35.6411 197.291 35.6411 196.893 35.6411Z" fill="#131117"/>
<path d="M231.04 35.6409V4.1543H238.41V35.6409H231.04ZM226.71 17.1277V10.4991H243.156V17.1277H226.71Z" fill="#131117"/>
<path d="M259.052 36.0673C256.994 36.0673 255.15 35.5149 253.524 34.4101C251.926 33.2737 250.652 31.7269 249.7 29.7699C248.748 27.7813 248.272 25.5401 248.272 23.0465C248.272 20.4897 248.748 18.2327 249.7 16.2757C250.652 14.3187 251.956 12.7877 253.616 11.6829C255.274 10.5465 257.162 9.97852 259.282 9.97852C260.448 9.97852 261.508 10.1521 262.46 10.4993C263.444 10.8465 264.304 11.3357 265.04 11.9671C265.778 12.5667 266.406 13.2769 266.93 14.0977C267.452 14.8869 267.836 15.7391 268.08 16.6545L266.56 16.4651V10.4993H273.886V35.6411H266.422V29.5805L268.08 29.5331C267.836 30.4171 267.436 31.2535 266.882 32.0427C266.33 32.8317 265.654 33.5263 264.856 34.1259C264.058 34.7257 263.166 35.1991 262.184 35.5463C261.202 35.8937 260.158 36.0673 259.052 36.0673ZM261.078 29.6753C262.214 29.6753 263.198 29.4069 264.026 28.8703C264.856 28.3337 265.5 27.5761 265.962 26.5975C266.422 25.5875 266.652 24.4037 266.652 23.0465C266.652 21.6891 266.422 20.5213 265.962 19.5427C265.5 18.5327 264.856 17.7593 264.026 17.2227C263.198 16.6545 262.214 16.3705 261.078 16.3705C259.972 16.3705 259.006 16.6545 258.176 17.2227C257.378 17.7593 256.748 18.5327 256.288 19.5427C255.826 20.5213 255.596 21.6891 255.596 23.0465C255.596 24.4037 255.826 25.5875 256.288 26.5975C256.748 27.5761 257.378 28.3337 258.176 28.8703C259.006 29.4069 259.972 29.6753 261.078 29.6753Z" fill="#131117"/>
<path d="M283.314 35.6411V0.603516H290.686V35.6411H283.314Z" fill="#131117"/>
<path d="M300.184 35.6411V0.603516H307.556V35.6411H300.184Z" fill="#131117"/>
<path d="M325.589 36.0673C323.531 36.0673 321.689 35.5149 320.061 34.4101C318.463 33.2737 317.189 31.7269 316.237 29.7699C315.285 27.7813 314.809 25.5401 314.809 23.0465C314.809 20.4897 315.285 18.2327 316.237 16.2757C317.189 14.3187 318.495 12.7877 320.153 11.6829C321.811 10.5465 323.701 9.97852 325.819 9.97852C326.987 9.97852 328.047 10.1521 328.999 10.4993C329.981 10.8465 330.841 11.3357 331.577 11.9671C332.315 12.5667 332.945 13.2769 333.467 14.0977C333.989 14.8869 334.373 15.7391 334.619 16.6545L333.099 16.4651V10.4993H340.423V35.6411H332.959V29.5805L334.619 29.5331C334.373 30.4171 333.973 31.2535 333.421 32.0427C332.867 32.8317 332.193 33.5263 331.393 34.1259C330.595 34.7257 329.705 35.1991 328.721 35.5463C327.739 35.8937 326.695 36.0673 325.589 36.0673ZM327.617 29.6753C328.753 29.6753 329.735 29.4069 330.565 28.8703C331.393 28.3337 332.039 27.5761 332.499 26.5975C332.959 25.5875 333.191 24.4037 333.191 23.0465C333.191 21.6891 332.959 20.5213 332.499 19.5427C332.039 18.5327 331.393 17.7593 330.565 17.2227C329.735 16.6545 328.753 16.3705 327.617 16.3705C326.511 16.3705 325.543 16.6545 324.713 17.2227C323.915 17.7593 323.285 18.5327 322.825 19.5427C322.365 20.5213 322.133 21.6891 322.133 23.0465C322.133 24.4037 322.365 25.5875 322.825 26.5975C323.285 27.5761 323.915 28.3337 324.713 28.8703C325.543 29.4069 326.511 29.6753 327.617 29.6753Z" fill="#131117"/>
</svg>
