<svg width="512" height="512" viewBox="0 0 512 512" fill="none" xmlns="http://www.w3.org/2000/svg">
<path fill-rule="evenodd" clip-rule="evenodd" d="M95.9429 91.1154C111.786 103.987 117.729 103.005 147.479 101.02L427.948 84.179C433.896 84.179 428.95 78.2447 426.966 77.2587L380.386 43.585C371.461 36.6557 359.57 28.7203 336.78 30.7054L65.2023 50.5134C55.2978 51.4954 53.3197 56.4477 57.2639 60.4169L95.9429 91.1154ZM112.782 156.479V451.58C112.782 467.44 120.707 473.373 138.545 472.392L446.78 454.556C464.626 453.575 466.615 442.667 466.615 429.783V136.662C466.615 123.799 461.666 116.863 450.742 117.853L128.633 136.662C116.746 137.661 112.781 143.607 112.781 156.479H112.782ZM417.07 172.308C419.046 181.23 417.07 190.143 408.132 191.146L393.281 194.105V411.968C380.386 418.898 368.496 422.861 358.587 422.861C342.723 422.861 338.75 417.905 326.867 403.06L229.723 250.554V398.107L260.463 405.044C260.463 405.044 260.463 422.861 235.662 422.861L167.29 426.827C165.304 422.861 167.29 412.966 174.226 410.984L192.068 406.039V210.945L167.295 208.96C165.308 200.039 170.257 187.175 184.142 186.177L257.489 181.233L358.587 335.723V199.057L332.811 196.099C330.833 185.192 338.75 177.273 348.663 176.291L417.07 172.308ZM42.4001 23.7771L324.884 2.97405C359.574 -0.00110841 368.5 1.99201 390.303 17.8298L480.475 81.2079C495.354 92.1064 500.313 95.0736 500.313 106.954V454.556C500.313 476.341 492.377 489.225 464.631 491.196L136.582 511.006C115.754 511.999 105.841 509.031 94.9338 495.158L28.5294 409.002C16.6318 393.142 11.6836 381.278 11.6836 367.397V58.4247C11.6836 40.6099 19.622 25.7492 42.4001 23.7771V23.7771Z" fill="#131117"/>
</svg>
