<svg width="1200" height="630" viewBox="0 0 1200 630" fill="none" xmlns="http://www.w3.org/2000/svg">
<rect width="1200" height="630" fill="#131117"/>
<rect x="180" width="840" height="630" rx="21" fill="#131117"/>
<path d="M832.05 152.845C828.577 156.254 825.238 159.53 821.891 162.818C820.236 161.338 818.436 159.557 816.47 158.003C813.879 155.957 811.028 154.512 807.67 154.43C804.441 154.352 801.857 155.609 800.121 158.448C795.841 165.427 791.668 172.475 787.429 179.481C781.731 188.896 776.14 198.385 770.272 207.678C762.16 220.522 750.376 225.895 736.025 225.708C727.65 225.598 719.823 223.584 712.907 218.382C711.919 217.636 710.978 216.816 709.753 215.82C709.753 227.758 709.753 239.414 709.753 251.188C704.758 251.188 699.971 251.188 695.025 251.188C695.025 214.122 695.025 177.009 695.025 139.767C699.849 139.767 704.684 139.767 709.664 139.767C709.664 143.055 709.664 146.284 709.664 149.916C710.823 148.963 711.697 148.21 712.608 147.507C721.179 140.853 730.834 138.779 741.268 139.97C755.592 141.606 765.785 149.514 772.508 162.759C773.186 164.095 773.071 165.048 772.275 166.274C768.98 171.358 765.796 176.517 762.664 181.496C761.749 178.032 761.016 174.459 759.868 171.042C756.681 161.565 749.665 156.773 740.779 154.938C725.503 151.783 711.712 163.205 709.779 179.496C708.065 193.933 717.676 208.174 731.264 210.541C742.289 212.458 751.734 208.741 758.384 199.08C763.656 191.418 768.328 183.292 773.23 175.349C778.232 167.239 783.404 159.233 788.11 150.935C794.426 139.802 807.396 137.24 817.611 141.782C823.098 144.219 827.618 148.065 832.05 152.845Z" fill="#F5F5F5"/>
<path d="M780.376 213.874C780.898 213.229 789.177 201.155 789.562 200.682C791.72 202.842 793.642 205.048 795.834 206.895C799.406 209.906 803.501 211.367 808.081 210.05C811.817 208.977 814.675 206.587 815.564 202.487C816.475 198.289 814.771 195.005 811.439 192.642C810.317 191.846 808.329 190.522 807.148 189.827C805.834 188.905 801.858 186.519 798.048 184.223C795.008 182.134 794.493 182.028 792.546 180.634C795.223 176.179 797.811 171.872 800.173 167.939C804.427 170.579 808.618 172.988 812.617 175.714C816.526 178.381 820.691 180.888 823.957 184.305C833.12 193.892 831.847 210.562 821.669 219.434C812.717 227.236 798.925 227.537 788.436 220.157C785.271 217.931 785.619 218.411 780.376 213.874Z" fill="#F5F5F5"/>
<path d="M287.174 537.725L284.087 510.107L281 537.725H267.549L262.478 508.729H270.416L274.329 536.347L277.306 508.729H290.867L293.844 536.347L297.758 508.729H305.696L300.624 537.725H287.174ZM320.922 538.221C313.535 538.221 308.188 533.701 308.188 526.204V520.25C308.188 512.753 313.535 508.233 320.922 508.233C328.309 508.233 333.601 512.753 333.601 520.25V526.039H314.913V526.535C314.913 530.559 317.394 532.157 320.922 532.157C323.899 532.157 326.269 530.89 326.545 528.685H333.491C332.829 534.693 327.758 538.221 320.922 538.221ZM314.913 520.636H326.876V519.589C326.876 516.612 324.45 514.462 320.922 514.462C317.394 514.462 314.913 516.337 314.913 519.589V520.636ZM351.517 538.221C348.651 538.221 346.391 537.505 344.627 536.182V537.725H337.736V496.933H344.627V510.273C346.391 508.95 348.651 508.233 351.517 508.233C358.904 508.233 363.149 513.029 363.149 520.526V525.928C363.149 533.425 358.904 538.221 351.517 538.221ZM344.627 525.928C344.627 529.952 346.611 531.606 350.415 531.606C354.218 531.606 356.258 529.952 356.258 525.928V520.526C356.258 517.053 354.218 514.848 350.415 514.848C346.611 514.848 344.627 517.053 344.627 520.526V525.928ZM377.372 537.725V508.729H384.263V510.218C385.476 509.281 387.24 508.233 390.768 508.233C394.351 508.233 397.327 509.446 399.257 511.706C400.414 510.438 402.895 508.233 407.801 508.233C414.03 508.233 418.771 511.982 418.771 518.431V537.725H411.88V519.865C411.88 517.329 410.613 514.848 406.478 514.848C403.281 514.848 401.517 516.943 401.517 519.865V537.725H394.626V519.865C394.626 517.329 393.358 514.848 389.224 514.848C386.027 514.848 384.263 516.943 384.263 519.865V537.725H377.372ZM433.976 538.221C426.589 538.221 422.344 533.425 422.344 525.928V520.526C422.344 513.029 426.589 508.233 433.976 508.233C436.842 508.233 439.102 508.95 440.866 510.273V508.729H447.757V537.725H440.866V536.182C439.102 537.505 436.842 538.221 433.976 538.221ZM429.235 525.928C429.235 529.952 431.275 531.606 435.078 531.606C438.882 531.606 440.866 529.952 440.866 525.928V520.526C440.866 517.053 438.882 514.848 435.078 514.848C431.275 514.848 429.235 517.053 429.235 520.526V525.928ZM451.396 537.725V508.729H458.287V537.725H451.396ZM451.341 503.162V495.554H458.287V503.162H451.341ZM462.424 537.725V508.729H469.315V510.218C470.527 509.281 472.567 508.233 476.095 508.233C482.324 508.233 487.12 511.982 487.12 518.431V537.725H480.229V519.865C480.229 517.329 478.851 514.848 474.717 514.848C471.409 514.848 469.315 516.943 469.315 519.865V537.725H462.424ZM502.394 537.725C497.378 537.725 493.685 534.528 493.685 529.291V514.793H489.44V508.729H493.685V503.272H500.575V508.729H507.521V514.793H500.575V531.11H507.521V537.725H502.394ZM523.125 538.221C515.739 538.221 510.391 533.701 510.391 526.204V520.25C510.391 512.753 515.739 508.233 523.125 508.233C530.512 508.233 535.804 512.753 535.804 520.25V526.039H517.117V526.535C517.117 530.559 519.597 532.157 523.125 532.157C526.102 532.157 528.472 530.89 528.748 528.685H535.694C535.032 534.693 529.961 538.221 523.125 538.221ZM517.117 520.636H529.079V519.589C529.079 516.612 526.653 514.462 523.125 514.462C519.597 514.462 517.117 516.337 517.117 519.589V520.636ZM539.939 537.725V508.729H546.83V510.218C548.043 509.281 550.082 508.233 553.61 508.233C559.839 508.233 564.635 511.982 564.635 518.431V537.725H557.745V519.865C557.745 517.329 556.367 514.848 552.232 514.848C548.925 514.848 546.83 516.943 546.83 519.865V537.725H539.939ZM579.855 538.221C572.468 538.221 568.223 533.425 568.223 525.928V520.526C568.223 513.029 572.468 508.233 579.855 508.233C582.721 508.233 584.981 508.95 586.745 510.273V508.729H593.636V537.725H586.745V536.182C584.981 537.505 582.721 538.221 579.855 538.221ZM575.114 525.928C575.114 529.952 577.153 531.606 580.957 531.606C584.761 531.606 586.745 529.952 586.745 525.928V520.526C586.745 517.053 584.761 514.848 580.957 514.848C577.153 514.848 575.114 517.053 575.114 520.526V525.928ZM597.771 537.725V508.729H604.662V510.218C605.874 509.281 607.914 508.233 611.442 508.233C617.671 508.233 622.467 511.982 622.467 518.431V537.725H615.576V519.865C615.576 517.329 614.198 514.848 610.064 514.848C606.756 514.848 604.662 516.943 604.662 519.865V537.725H597.771ZM638.789 538.221C631.402 538.221 626.055 533.701 626.055 526.204V520.25C626.055 512.753 631.402 508.233 638.789 508.233C646.341 508.233 651.026 512.312 651.412 519.093H644.467C644.246 516.447 642.427 514.848 638.789 514.848C635.261 514.848 632.945 516.943 632.945 520.25V526.204C632.945 530.063 635.261 531.606 638.789 531.606C642.537 531.606 644.356 530.338 644.522 527.306H651.412C651.026 534.142 646.341 538.221 638.789 538.221ZM667.732 538.221C660.345 538.221 654.998 533.701 654.998 526.204V520.25C654.998 512.753 660.345 508.233 667.732 508.233C675.118 508.233 680.41 512.753 680.41 520.25V526.039H661.723V526.535C661.723 530.559 664.204 532.157 667.732 532.157C670.708 532.157 673.079 530.89 673.354 528.685H680.3C679.639 534.693 674.567 538.221 667.732 538.221ZM661.723 520.636H673.685V519.589C673.685 516.612 671.26 514.462 667.732 514.462C664.204 514.462 661.723 516.337 661.723 519.589V520.636ZM708.428 538.221C705.561 538.221 703.301 537.505 701.537 536.182V550.349H694.647V508.729H701.537V510.273C703.301 508.95 705.561 508.233 708.428 508.233C715.815 508.233 720.059 513.029 720.059 520.526V525.928C720.059 533.425 715.815 538.221 708.428 538.221ZM701.537 525.928C701.537 529.952 703.522 531.606 707.325 531.606C711.129 531.606 713.169 529.952 713.169 525.928V520.526C713.169 517.053 711.129 514.848 707.325 514.848C703.522 514.848 701.537 517.053 701.537 520.526V525.928ZM732.891 537.725C727.875 537.725 724.182 534.528 724.182 529.291V496.933H731.072V531.11H736.254V537.725H732.891ZM749.562 538.221C742.175 538.221 737.931 533.425 737.931 525.928V520.526C737.931 513.029 742.175 508.233 749.562 508.233C752.428 508.233 754.689 508.95 756.453 510.273V508.729H763.343V537.725H756.453V536.182C754.689 537.505 752.428 538.221 749.562 538.221ZM744.821 525.928C744.821 529.952 746.861 531.606 750.664 531.606C754.468 531.606 756.453 529.952 756.453 525.928V520.526C756.453 517.053 754.468 514.848 750.664 514.848C746.861 514.848 744.821 517.053 744.821 520.526V525.928ZM767.478 537.725V508.729H774.369V510.218C775.582 509.281 777.621 508.233 781.149 508.233C787.379 508.233 792.174 511.982 792.174 518.431V537.725H785.284V519.865C785.284 517.329 783.906 514.848 779.771 514.848C776.464 514.848 774.369 516.943 774.369 519.865V537.725H767.478ZM807.504 538.221C800.668 538.221 795.321 534.638 795.211 527.913H802.102C802.157 529.787 803.59 531.716 807.504 531.716C811.197 531.716 812.741 530.338 812.741 529.07C812.741 527.968 812.19 526.976 809.929 526.645L804.196 525.873C799.897 525.322 796.369 522.511 796.369 517.329C796.369 512.423 800.889 508.233 807.835 508.233C814.891 508.233 819.411 512.533 819.411 517.88H812.52C812.465 515.951 810.481 514.573 807.835 514.573C805.299 514.573 803.59 515.785 803.59 517.163C803.59 518.266 804.362 519.203 806.071 519.424L812.134 520.25C818.198 521.077 820.073 525.157 820.073 528.74C820.073 533.591 815.607 538.221 807.504 538.221Z" fill="#F5F5F5"/>
<path d="M264.021 479.075V464.052H266.52V465.58C267.314 464.463 268.637 463.787 270.665 463.787C272.635 463.787 274.193 464.581 275.134 465.933C276.016 464.787 277.398 463.787 280.044 463.787C283.366 463.787 285.689 466.021 285.689 469.461V479.075H283.19V470.02C283.19 467.491 282.043 466.139 279.662 466.139C277.663 466.139 276.134 467.227 276.134 470.02V479.075H273.635V470.02C273.635 467.491 272.488 466.139 270.107 466.139C268.108 466.139 266.52 467.227 266.52 470.02V479.075H264.021ZM289.517 470.079C289.517 466.08 291.958 463.787 295.721 463.787C299.484 463.787 301.895 466.08 301.895 470.079V473.048C301.895 477.046 299.484 479.34 295.721 479.34C291.958 479.34 289.517 477.046 289.517 473.048V470.079ZM292.016 473.048C292.016 476.106 293.545 476.988 295.721 476.988C297.896 476.988 299.396 476.106 299.396 473.048V470.079C299.396 467.315 297.896 466.139 295.721 466.139C293.545 466.139 292.016 467.315 292.016 470.079V473.048ZM306.025 479.075V464.052H308.524V465.786C309.259 464.698 310.347 464.052 312.346 464.052H313.846V466.551H312.346C310.082 466.551 308.524 467.815 308.524 470.931V479.075H306.025ZM321.963 479.34C318.199 479.34 315.759 477.046 315.759 473.048V470.079C315.759 466.08 318.199 463.787 321.963 463.787C325.491 463.787 328.048 465.786 328.107 470.079V472.46H318.258V473.048C318.258 476.106 319.787 476.988 321.963 476.988C323.785 476.988 325.314 476.341 325.579 474.342H328.078C327.813 477.517 325.285 479.34 321.963 479.34ZM318.258 470.255H325.608V470.079C325.549 467.08 323.932 466.08 321.963 466.08C319.787 466.08 318.258 467.08 318.258 470.079V470.255ZM344.322 479.075C341.352 479.075 340.323 477.399 340.323 475.341V466.404H338.118V464.052H340.382V460.7H342.822V464.052H346.497V466.404H342.822V476.723H346.556V479.075H344.322ZM350.527 479.075V457.319H353.026V465.58C353.937 464.375 355.29 463.787 357.318 463.787C360.641 463.787 362.904 466.021 362.904 469.461V479.075H360.405V470.02C360.405 467.491 359.141 466.139 356.76 466.139C354.761 466.139 353.026 467.227 353.026 470.02V479.075H350.527ZM372.895 479.34C369.132 479.34 366.721 477.046 366.721 473.048V470.079C366.721 466.08 369.132 463.787 372.895 463.787C374.395 463.787 375.659 464.228 376.6 465.051V464.052H379.099V479.075H376.6V478.075C375.659 478.899 374.395 479.34 372.895 479.34ZM369.22 473.048C369.22 476.106 370.72 476.988 372.895 476.988C374.924 476.988 376.6 476.106 376.6 473.048V470.079C376.6 467.315 374.924 466.139 372.895 466.139C370.72 466.139 369.22 467.315 369.22 470.079V473.048ZM384.09 479.075V464.052H386.589V465.58C387.383 464.463 388.824 463.787 390.823 463.787C394.145 463.787 396.35 466.021 396.35 469.461V479.075H393.851V470.02C393.851 467.491 392.646 466.139 390.264 466.139C388.265 466.139 386.589 467.227 386.589 470.02V479.075H384.09ZM406.372 485.778V483.426H409.136V464.052H411.635V482.162C411.635 484.367 410.694 485.778 408.019 485.778H406.372ZM408.989 460.935V458.054H411.752V460.935H408.989ZM426.054 473.107V464.052H428.553V473.665C428.553 477.105 426.436 479.34 422.526 479.34C418.586 479.34 416.469 477.105 416.469 473.665V464.052H418.968V473.107C418.968 475.635 420.085 476.988 422.526 476.988C424.936 476.988 426.054 475.635 426.054 473.107ZM438.528 479.34C434.97 479.34 432.471 477.605 432.383 474.106H434.853C434.853 476.106 436.381 476.988 438.528 476.988C440.703 476.988 441.967 476.076 441.967 474.812C441.967 473.901 441.321 473.254 439.968 472.901L436.44 472.019C434.294 471.49 433 470.167 433 468.021C433 465.639 434.941 463.787 438.381 463.787C441.791 463.787 444.114 465.786 444.114 468.638H441.703C441.615 466.874 440.262 466.051 438.381 466.051C436.381 466.051 435.382 466.933 435.382 468.021C435.382 469.138 436.234 469.52 437.293 469.785L440.497 470.578C443.055 471.225 444.466 472.519 444.466 474.812C444.466 477.399 442.261 479.34 438.528 479.34ZM453.308 479.075C450.339 479.075 449.31 477.399 449.31 475.341V466.404H447.105V464.052H449.369V460.7H451.809V464.052H455.484V466.404H451.809V476.723H455.543V479.075H453.308ZM473.096 479.34C471.596 479.34 470.332 478.899 469.391 478.075V479.075H466.892V457.319H469.391V465.051C470.332 464.228 471.596 463.787 473.096 463.787C476.859 463.787 479.27 466.08 479.27 470.079V473.048C479.27 477.046 476.859 479.34 473.096 479.34ZM469.391 473.048C469.391 476.106 471.067 476.988 473.096 476.988C475.271 476.988 476.771 476.106 476.771 473.048V470.079C476.771 467.315 475.271 466.139 473.096 466.139C471.067 466.139 469.391 467.315 469.391 470.079V473.048ZM488.371 479.34C484.607 479.34 482.197 477.046 482.197 473.048V470.079C482.197 466.08 484.607 463.787 488.371 463.787C489.87 463.787 491.134 464.228 492.075 465.051V464.052H494.574V479.075H492.075V478.075C491.134 478.899 489.87 479.34 488.371 479.34ZM484.696 473.048C484.696 476.106 486.195 476.988 488.371 476.988C490.399 476.988 492.075 476.106 492.075 473.048V470.079C492.075 467.315 490.399 466.139 488.371 466.139C486.195 466.139 484.696 467.315 484.696 470.079V473.048ZM504.593 479.34C500.83 479.34 498.39 477.046 498.39 473.048V470.079C498.39 466.08 500.83 463.787 504.593 463.787C508.121 463.787 510.679 465.786 510.738 469.344H508.239C508.18 467.109 506.563 466.139 504.593 466.139C502.417 466.139 500.889 467.315 500.889 470.079V473.048C500.889 476.106 502.417 476.988 504.593 476.988C506.563 476.988 508.18 476.253 508.239 473.842H510.738C510.679 477.34 508.092 479.34 504.593 479.34ZM526.57 464.346L518.044 470.961L526.747 478.781V479.075H523.513L517.309 473.518V479.075H514.84V457.319H517.309V468.609L523.101 464.052H526.57V464.346ZM538.974 473.107V464.052H541.473V473.665C541.473 477.105 539.356 479.34 535.446 479.34C531.506 479.34 529.389 477.105 529.389 473.665V464.052H531.888V473.107C531.888 475.635 533.006 476.988 535.446 476.988C537.857 476.988 538.974 475.635 538.974 473.107ZM552.683 479.34C551.183 479.34 549.919 478.899 548.978 478.075V485.808H546.479V464.052H548.978V465.051C549.919 464.228 551.183 463.787 552.683 463.787C556.446 463.787 558.857 466.08 558.857 470.079V473.048C558.857 477.046 556.446 479.34 552.683 479.34ZM548.978 473.048C548.978 475.518 550.654 476.988 552.683 476.988C554.858 476.988 556.358 475.518 556.358 473.048V470.079C556.358 467.315 554.858 466.139 552.683 466.139C550.654 466.139 548.978 467.315 548.978 470.079V473.048ZM567.928 479.34C564.37 479.34 561.871 477.605 561.783 474.106H564.253C564.253 476.106 565.782 476.988 567.928 476.988C570.103 476.988 571.368 476.076 571.368 474.812C571.368 473.901 570.721 473.254 569.368 472.901L565.84 472.019C563.694 471.49 562.401 470.167 562.401 468.021C562.401 465.639 564.341 463.787 567.781 463.787C571.191 463.787 573.514 465.786 573.514 468.638H571.103C571.015 466.874 569.662 466.051 567.781 466.051C565.782 466.051 564.782 466.933 564.782 468.021C564.782 469.138 565.635 469.52 566.693 469.785L569.898 470.578C572.455 471.225 573.867 472.519 573.867 474.812C573.867 477.399 571.662 479.34 567.928 479.34ZM577.24 479.075V475.841H580.415V479.075H577.24Z" fill="#F5F5F5"/>
</svg>
